HIERARCHY
ROOT hip
{
  OFFSET 0 0 0
  CHANNELS 6 Xposition Yposition Zposition Zrotation Yrotation Xrotation
  JOINT abdomen
  {
    OFFSET 0 20.6881 -0.73152
    CHANNELS 3 Zrotation Xrotation Yrotation
    JOINT chest
    {
      OFFSET 0 11.7043 -0.48768
      CHANNELS 3 Zrotation Xrotation Yrotation
      JOINT neck
      {
        OFFSET 0 22.1894 -2.19456
        CHANNELS 3 Zrotation Xrotation Yrotation
        JOINT head
        {
          OFFSET -0.24384 7.07133 1.2192
          CHANNELS 3 Zrotation Xrotation Yrotation
          JOINT leftEye
          {
            OFFSET 4.14528 8.04674 8.04672
            CHANNELS 3 Zrotation Xrotation Yrotation
            End Site
            {
              OFFSET 1 0 0
            }
          }
          JOINT rightEye
          {
            OFFSET -3.6576 8.04674 8.04672
            CHANNELS 3 Zrotation Xrotation Yrotation
            End Site
            {
              OFFSET 1 0 0
            }
          }
        }
      }
      JOINT rCollar
      {
        OFFSET -2.68224 19.2634 -4.8768
        CHANNELS 3 Zrotation Xrotation Yrotation
        JOINT rShldr
        {
          OFFSET -8.77824 -1.95073 1.46304
          CHANNELS 3 Zrotation Xrotation Yrotation
          JOINT rForeArm
          {
            OFFSET -28.1742 -1.7115 0.48768
            CHANNELS 3 Zrotation Xrotation Yrotation
            JOINT rHand
            {
              OFFSET -22.5879 0.773209 7.07136
              CHANNELS 3 Zrotation Xrotation Yrotation
              JOINT rThumb1
              {
                OFFSET -1.2192 -0.487915 3.41376
                CHANNELS 3 Zrotation Xrotation Yrotation
                JOINT rThumb2
                {
                  OFFSET -3.37035 -0.52449 3.41376
                  CHANNELS 3 Zrotation Xrotation Yrotation
                  End Site
                  {
                    OFFSET -1.78271 -1.18214 1.43049
                  }
                }
              }
              JOINT rIndex1
              {
                OFFSET -7.75947 0.938293 5.60832
                CHANNELS 3 Zrotation Xrotation Yrotation
                JOINT rIndex2
                {
                  OFFSET -2.54057 -0.884171 1.56538
                  CHANNELS 3 Zrotation Xrotation Yrotation
                  End Site
                  {
                    OFFSET -1.62519 -0.234802 1.16502
                  }
                }
              }
              JOINT rMid1
              {
                OFFSET -8.24714 1.18213 3.41376
                CHANNELS 3 Zrotation Xrotation Yrotation
                JOINT rMid2
                {
                  OFFSET -3.10165 -0.590103 1.0647
                  CHANNELS 3 Zrotation Xrotation Yrotation
                  End Site
                  {
                    OFFSET -2.48547 -0.328903 0.83742
                  }
                }
              }
              JOINT rRing1
              {
                OFFSET -8.82822 0.546677 1.51678
                CHANNELS 3 Zrotation Xrotation Yrotation
                JOINT rRing2
                {
                  OFFSET -2.60934 -0.819778 -0.0198488
                  CHANNELS 3 Zrotation Xrotation Yrotation
                  End Site
                  {
                    OFFSET -2.33842 -0.294052 0.168128
                  }
                }
              }
              JOINT rPinky1
              {
                OFFSET -8.27202 -0.0477905 -0.4584
                CHANNELS 3 Zrotation Xrotation Yrotation
                JOINT rPinky2
                {
                  OFFSET -1.82734 -0.647385 -0.700984
                  CHANNELS 3 Zrotation Xrotation Yrotation
                  End Site
                  {
                    OFFSET -1.69225 -0.51767 -0.607171
                  }
                }
              }
            }
          }
        }
      }
      JOINT lCollar
      {
        OFFSET 2.68224 19.2634 -4.8768
        CHANNELS 3 Zrotation Xrotation Yrotation
        JOINT lShldr
        {
          OFFSET 8.77824 -1.95073 1.46304
          CHANNELS 3 Zrotation Xrotation Yrotation
          JOINT lForeArm
          {
            OFFSET 28.1742 -1.7115 0.48768
            CHANNELS 3 Zrotation Xrotation Yrotation
            JOINT lHand
            {
              OFFSET 22.5879 0.773209 7.07136
              CHANNELS 3 Zrotation Xrotation Yrotation
              JOINT lThumb1
              {
                OFFSET 1.2192 -0.487915 3.41376
                CHANNELS 3 Zrotation Xrotation Yrotation
                JOINT lThumb2
                {
                  OFFSET 3.37035 -0.52449 3.41376
                  CHANNELS 3 Zrotation Xrotation Yrotation
                  End Site
                  {
                    OFFSET 1.78271 -1.18214 1.43049
                  }
                }
              }
              JOINT lIndex1
              {
                OFFSET 7.75947 0.938293 5.60832
                CHANNELS 3 Zrotation Xrotation Yrotation
                JOINT lIndex2
                {
                  OFFSET 2.54057 -0.884171 1.56538
                  CHANNELS 3 Zrotation Xrotation Yrotation
                  End Site
                  {
                    OFFSET 1.62519 -0.234802 1.16502
                  }
                }
              }
              JOINT lMid1
              {
                OFFSET 8.24714 1.18213 3.41376
                CHANNELS 3 Zrotation Xrotation Yrotation
                JOINT lMid2
                {
                  OFFSET 3.10165 -0.590103 1.0647
                  CHANNELS 3 Zrotation Xrotation Yrotation
                  End Site
                  {
                    OFFSET 2.48547 -0.328903 0.83742
                  }
                }
              }
              JOINT lRing1
              {
                OFFSET 8.82822 0.546677 1.51678
                CHANNELS 3 Zrotation Xrotation Yrotation
                JOINT lRing2
                {
                  OFFSET 2.60934 -0.819778 -0.0198488
                  CHANNELS 3 Zrotation Xrotation Yrotation
                  End Site
                  {
                    OFFSET 2.33842 -0.294052 0.168128
                  }
                }
              }
              JOINT lPinky1
              {
                OFFSET 8.27202 -0.0477905 -0.4584
                CHANNELS 3 Zrotation Xrotation Yrotation
                JOINT lPinky2
                {
                  OFFSET 1.82734 -0.647385 -0.700984
                  CHANNELS 3 Zrotation Xrotation Yrotation
                  End Site
                  {
                    OFFSET 1.69225 -0.51767 -0.607171
                  }
                }
              }
            }
          }
        }
      }
    }
  }
  JOINT rButtock
  {
    OFFSET -8.77824 4.35084 1.2192
    CHANNELS 3 Zrotation Xrotation Yrotation
    JOINT rThigh
    {
      OFFSET 0 -1.70687 -2.19456
      CHANNELS 3 Zrotation Xrotation Yrotation
      JOINT rShin
      {
        OFFSET 0 -36.8199 0.73152
        CHANNELS 3 Zrotation Xrotation Yrotation
        JOINT rFoot
        {
          OFFSET 0.73152 -45.1104 -5.12064
          CHANNELS 3 Zrotation Xrotation Yrotation
          End Site
          {
            OFFSET -1.1221 -3.69964 12.103
          }
        }
      }
    }
  }
  JOINT lButtock
  {
    OFFSET 8.77824 4.35084 1.2192
    CHANNELS 3 Zrotation Xrotation Yrotation
    JOINT lThigh
    {
      OFFSET 0 -1.70687 -2.19456
      CHANNELS 3 Zrotation Xrotation Yrotation
      JOINT lShin
      {
        OFFSET 0 -36.8199 0.73152
        CHANNELS 3 Zrotation Xrotation Yrotation
        JOINT lFoot
        {
          OFFSET -0.73152 -45.1104 -5.12064
          CHANNELS 3 Zrotation Xrotation Yrotation
          End Site
          {
            OFFSET 1.1221 -3.69964 12.103
          }
        }
      }
    }
  }
}
MOTION
Frames:	4
Frame Time:	0.00833333
56.7365 84.844 -24.8972 1.1167 20.2942 -0.104 1.54252 12.3122 -3.65911 3.07487 -4.67516 -0.796532 -13.4779 4.52063 -8.91914 22.0662 16.7937 -17.8556 -0.0 0.0 0.0 -0.0 0.0 0.0 -1.36759e-13 4.23204e-14 1.05741e-12 76.7828 55.9838 -1.65951 -28.3976 -37.0675 78.81 -0.387227 -17.4274 -2.5284 -5.37246e-10 7.76017e-09 -2.50205e-09 -9.09865e-10 1.34285e-08 -4.32673e-09 -5.37244e-10 7.76017e-09 -2.50206e-09 7.73091 5.47488 0.417314 -5.37247e-10 7.76017e-09 -2.50206e-09 2.90554 0.965183 0.102902 -5.37247e-10 7.76017e-09 -2.50205e-09 10.2786 0.731801 0.0259123 -5.37252e-10 7.76018e-09 -2.50204e-09 2.22167 -0.733487 -0.20892 -1.37002e-13 4.23107e-14 1.05711e-12 -49.1851 67.8499 -23.0881 28.4049 -34.4044 -74.3662 0.0777946 -7.93289 1.12214 3.26369e-09 -2.2203e-08 -2.8787e-09 5.64969e-09 -3.83205e-08 -4.96123e-09 3.26368e-09 -2.2203e-08 -2.87869e-09 -7.73091 5.47488 -0.417314 3.26369e-09 -2.2203e-08 -2.8787e-09 -2.90554 0.965183 -0.102902 3.26368e-09 -2.2203e-08 -2.87869e-09 -10.2786 0.731801 -0.0259123 3.26369e-09 -2.2203e-08 -2.8787e-09 -2.22167 -0.733487 0.20892 -2.03217e-16 0.0 -3.88251e-19 -0.66356 -16.3338 -5.05549 -0.1538 28.8403 0.346732 -2.18582 -6.87589 -9.1374 2.03217e-16 0.0 3.88251e-19 9.49079 -8.40783 5.67483 0.426504 42.5708 -0.566133 -0.899565 10.0598 16.5159
56.6257 84.8074 -24.3654 1.1575 19.4923 -0.0278 1.66556 12.3203 -3.59353 2.9661 -4.64506 -0.776582 -13.4568 4.52044 -8.90793 22.0912 16.8502 -17.8669 -0.0 0.0 0.0 -0.0 0.0 0.0 -1.23485e-13 2.8631e-14 9.8458e-13 76.5758 55.9845 -1.58845 -28.3956 -37.1038 78.8719 -0.372542 -17.0985 -2.47778 -4.78158e-10 8.28564e-09 -2.60961e-09 -8.05475e-10 1.43364e-08 -4.51234e-09 -4.78157e-10 8.28563e-09 -2.60962e-09 7.73091 5.47488 0.417314 -4.78159e-10 8.28564e-09 -2.60961e-09 2.90554 0.965183 0.102902 -4.7816e-10 8.28564e-09 -2.60961e-09 10.2786 0.731801 0.0259123 -4.78166e-10 8.28565e-09 -2.6096e-09 2.22167 -0.733487 -0.20892 -1.23761e-13 2.86172e-14 9.84282e-13 -49.638 67.8557 -22.7731 28.4057 -34.4289 -74.4084 0.0793439 -8.01006 1.13321 3.02655e-09 -1.95836e-08 -2.50383e-09 5.23817e-09 -3.37985e-08 -4.31421e-09 3.02655e-09 -1.95837e-08 -2.50382e-09 -7.73091 5.47488 -0.417314 3.02655e-09 -1.95837e-08 -2.50383e-09 -2.90554 0.965183 -0.102902 3.02655e-09 -1.95837e-08 -2.50382e-09 -10.2786 0.731801 -0.0259123 3.02656e-09 -1.95836e-08 -2.50383e-09 -2.22167 -0.733487 0.20892 -2.03217e-16 0.0 -3.88251e-19 -0.243307 -16.043 -4.394 -0.152649 28.9088 0.349701 -2.2545 -7.13494 -9.3104 2.03217e-16 0.0 3.88251e-19 9.5611 -9.21496 5.55677 0.451003 43.7061 -0.621257 -0.56126 9.71509 13.6761
56.5018 84.7494 -23.8056 1.1106 18.4092 0.0982 1.82861 12.4504 -3.59605 2.88683 -4.68188 -0.771982 -13.4117 4.48986 -8.9007 21.9978 16.9525 -17.8725 -0.0 0.0 0.0 -0.0 0.0 0.0 -1.12289e-13 3.11902e-14 8.99473e-13 76.222 55.989 -1.41069 -28.3942 -37.1291 78.9153 -0.365836 -16.9455 -2.45429 -3.8069e-10 8.42795e-09 -2.60021e-09 -6.35969e-10 1.45806e-08 -4.4954e-09 -3.80689e-10 8.42794e-09 -2.60022e-09 7.73091 5.47488 0.417314 -3.8069e-10 8.42795e-09 -2.60022e-09 2.90554 0.965183 0.102902 -3.80691e-10 8.42795e-09 -2.60021e-09 10.2786 0.731801 0.0259123 -3.80698e-10 8.42795e-09 -2.60021e-09 2.22167 -0.733487 -0.20892 -1.12528e-13 3.11768e-14 8.99227e-13 -50.2026 67.8518 -22.3648 28.4058 -34.4446 -74.4378 0.0796862 -8.0255 1.13542 2.75558e-09 -1.76594e-08 -2.26945e-09 4.76856e-09 -3.04778e-08 -3.91023e-09 2.75557e-09 -1.76594e-08 -2.26944e-09 -7.73091 5.47488 -0.417314 2.75558e-09 -1.76594e-08 -2.26945e-09 -2.90554 0.965183 -0.102902 2.75557e-09 -1.76594e-08 -2.26944e-09 -10.2786 0.731801 -0.0259123 2.75559e-09 -1.76594e-08 -2.26945e-09 -2.22167 -0.733487 0.20892 -2.03217e-16 0.0 -3.88251e-19 0.197508 -15.6689 -3.78662 -0.151585 28.9702 0.355195 -2.33443 -7.37103 -9.54153 2.03217e-16 0.0 3.88251e-19 9.59076 -10.0176 5.26769 0.472096 44.7388 -0.677937 -0.174002 8.88928 10.7578
56.3746 84.6997 -23.3587 0.9225 18.439 -0.3984 2.01131 12.6538 -3.6416 2.8251 -4.7609 -0.777576 -13.3485 4.43922 -8.89609 21.8242 17.0896 -17.8756 -0.0 0.0 0.0 -0.0 0.0 0.0 -1.00247e-13 4.23456e-14 7.94934e-13 75.7871 55.9913 -1.17684 -28.3931 -37.1478 78.9471 -0.362613 -16.873 -2.44316 -2.47567e-10 8.31359e-09 -2.5073e-09 -4.05584e-10 1.43799e-08 -4.33374e-09 -2.47567e-10 8.31357e-09 -2.50731e-09 7.73091 5.47488 0.417314 -2.47567e-10 8.31359e-09 -2.50731e-09 2.90554 0.965183 0.102902 -2.47567e-10 8.31359e-09 -2.5073e-09 10.2786 0.731801 0.0259123 -2.47576e-10 8.31359e-09 -2.5073e-09 2.22167 -0.733487 -0.20892 -1.00404e-13 4.23353e-14 7.94772e-13 -50.8397 67.8419 -21.897 28.4055 -34.4527 -74.4556 0.0790143 -7.99127 1.13052 2.42528e-09 -1.58791e-08 -2.08297e-09 4.19647e-09 -2.7407e-08 -3.58939e-09 2.42528e-09 -1.58791e-08 -2.08297e-09 -7.73091 5.47488 -0.417314 2.42528e-09 -1.58791e-08 -2.08297e-09 -2.90554 0.965183 -0.102902 2.42527e-09 -1.58791e-08 -2.08297e-09 -10.2786 0.731801 -0.0259123 2.42529e-09 -1.58791e-08 -2.08297e-09 -2.22167 -0.733487 0.20892 -2.03217e-16 0.0 -3.88251e-19 0.641616 -15.2477 -3.21569 -0.150764 29.0456 0.36346 -2.42555 -7.60132 -9.81502 2.03217e-16 0.0 3.88251e-19 9.57187 -10.8225 4.85237 0.490877 45.6796 -0.738682 0.179466 7.63355 7.67321
